<svg width="400" height="300" viewBox="0 0 400 300" fill="none" xmlns="http://www.w3.org/2000/svg">
  <!-- Background -->
  <rect width="400" height="300" fill="#F8F9FA"/>
  
  <!-- Shield Icon -->
  <g transform="translate(150, 80)">
    <path d="M50 0L90 15V55C90 85 70 105 50 115C30 105 10 85 10 55V15L50 0Z" 
          fill="#2D9B9B" opacity="0.1"/>
    <path d="M50 5L85 18V55C85 82 67 100 50 109C33 100 15 82 15 55V18L50 5Z" 
          stroke="#2D9B9B" stroke-width="2" fill="none"/>
    <path d="M40 55L47 62L62 45" stroke="#2D9B9B" stroke-width="3" 
          stroke-linecap="round" stroke-linejoin="round"/>
  </g>
  
  <!-- Text -->
  <text x="200" y="220" font-family="Arial, sans-serif" font-size="18" 
        font-weight="bold" fill="#2D9B9B" text-anchor="middle">
    ScamGuard
  </text>
  <text x="200" y="245" font-family="Arial, sans-serif" font-size="14" 
        fill="#6B7280" text-anchor="middle">
    Real-Time Scam Detection
  </text>
  
  <!-- Decorative Elements -->
  <circle cx="50" cy="50" r="4" fill="#2D9B9B" opacity="0.3"/>
  <circle cx="350" cy="50" r="4" fill="#2D9B9B" opacity="0.3"/>
  <circle cx="50" cy="250" r="4" fill="#2D9B9B" opacity="0.3"/>
  <circle cx="350" cy="250" r="4" fill="#2D9B9B" opacity="0.3"/>
</svg>
